Coordinates
version=1
nRows=11
nColumns=60
inDegrees=yes

Units are S.I. units (second, meters, Newtons, ...)
If the header above contains a line with 'inDegrees', this indicates whether rotational values are in degrees (yes) or radians (no).

endheader
time	pelvis_tilt	pelvis_list	pelvis_rotation	pelvis_tx	pelvis_ty	pelvis_tz	hip_flexion_r	hip_adduction_r	hip_rotation_r	knee_angle_r_beta	knee_angle_r	ankle_angle_r	subtalar_angle_r	mtp_angle_r	hip_flexion_l	hip_adduction_l	hip_rotation_l	knee_angle_l_beta	knee_angle_l	ankle_angle_l	subtalar_angle_l	mtp_angle_l	L5_S1_Flex_Ext	L5_S1_Lat_Bending	L5_S1_axial_rotation	L4_L5_Flex_Ext	L4_L5_Lat_Bending	L4_L5_axial_rotation	L3_L4_Flex_Ext	L3_L4_Lat_Bending	L3_L4_axial_rotation	L2_L3_Flex_Ext	L2_L3_Lat_Bending	L2_L3_axial_rotation	L1_L2_Flex_Ext	L1_L2_Lat_Bending	L1_L2_axial_rotation	L1_T12_Flex_Ext	L1_T12_Lat_Bending	L1_T12_axial_rotation	Abs_r3	Abs_r2	Abs_r1	Abs_t1	Abs_t2	arm_flex_r	arm_add_r	arm_rot_r	elbow_flex_r	pro_sup_r	wrist_flex_r	wrist_dev_r	arm_flex_l	arm_add_l	arm_rot_l	elbow_flex_l	pro_sup_l	wrist_flex_l	wrist_dev_l
      2.62000000	      0.17691557	      9.86522181	     92.54737633	      0.39526000	      0.94570125	      0.27814994	     -0.27454529	     -4.66927387	     -1.77496300	      0.29326883	    -16.80306608	      8.03326716	      0.00000000	      0.00000000	     -0.63127797	     -5.42928742	     -0.71478084	      0.24865570	    -14.24692237	      9.41055253	      0.00000000	      0.00000000	     -6.17853234	      0.12122316	     -0.10278255	    -11.47415240	      0.16122680	     -0.10920646	    -10.15071077	      0.29474199	     -0.10920646	     -7.06144461	      0.29474199	     -0.08993473	     -5.73738513	      0.24719826	     -0.08351082	     -3.53041338	      0.18777467	     -0.07708691	    -44.13263862	      1.37130061	     -0.57164572	      0.00000000	      0.00000000	     51.08691189	    -28.77131966	     18.01924248	     71.30089415	     55.92253679	      0.74839566	     29.77797108	     57.75108365	    -24.61052615	     28.74625032	     61.42547308	     52.31187250	      6.12352687	     16.65107104
      2.63000000	      0.18972557	      9.55031037	     92.52761365	      0.39501027	      0.94574010	      0.27987132	      0.09744950	     -4.68363280	     -1.71438929	      0.28977086	    -16.60264724	      7.70445844	      0.00000000	      0.00000000	     -0.25839131	     -5.39087804	     -0.68843410	      0.24535567	    -14.05784436	      9.14915660	      0.00000000	      0.00000000	     -6.19011214	      0.12216798	     -0.10773882	    -11.49565726	      0.16248341	     -0.11447249	    -10.16973524	      0.29703922	     -0.11447249	     -7.07467917	      0.29703922	     -0.09427147	     -5.74813814	      0.24912494	     -0.08753779	     -3.53703008	      0.18923820	     -0.08080411	    -44.21535202	      1.38198861	     -0.59921099	      0.00000000	      0.00000000	     52.73332962	    -28.41046793	     18.56190194	     69.84492906	     55.97033732	      0.71041982	     29.52443360	     59.51250526	    -24.29854971	     29.61587086	     59.82379661	     52.06513241	      6.31076029	     16.54805439
      2.64000000	      0.22387190	      9.25254430	     92.50798017	      0.39471788	      0.94576621	      0.28162657	      0.44666322	     -4.67223494	     -1.60083093	      0.28622205	    -16.39931559	      7.40306606	      0.00000000	      0.00000000	      0.09034839	     -5.37206933	     -0.67352420	      0.24182536	    -13.85557243	      8.89776769	      0.00000000	      0.00000000	     -6.20867418	      0.12628650	     -0.11241879	    -11.53012882	      0.16796105	     -0.11944497	    -10.20023081	      0.30705300	     -0.11944497	     -7.09589372	      0.30705300	     -0.09836644	     -5.76537484	      0.25752343	     -0.09134027	     -3.54763643	      0.19561779	     -0.08431409	    -44.34793881	      1.42857815	     -0.62523960	      0.00000000	      0.00000000	     54.40678911	    -28.10192960	     19.21412594	     68.42813629	     55.25407511	      0.74218453	     29.01470056	     61.28541544	    -24.01545098	     30.62504059	     58.28735915	     50.95666711	      6.71771790	     16.33400841
      2.65000000	      0.26809534	      8.95467943	     92.43312594	      0.39459488	      0.94581040	      0.28332947	      0.80532670	     -4.64837808	     -1.47989823	      0.28244894	    -16.18313200	      7.05311358	      0.00000000	      0.00000000	      0.42072544	     -5.37951105	     -0.70413572	      0.23827389	    -13.65208849	      8.59205923	      0.00000000	      0.00000000	     -6.22664198	      0.12862158	     -0.11068923	    -11.56349682	      0.17106670	     -0.11760731	    -10.22975011	      0.31273051	     -0.11760731	     -7.11642912	      0.31273051	     -0.09685308	     -5.78205974	      0.26228513	     -0.08993500	     -3.55790323	      0.19923483	     -0.08301692	    -44.47628101	      1.45499303	     -0.61562030	      0.00000000	      0.00000000	     56.02525830	    -27.59228334	     19.63992748	     66.88516577	     55.37158579	      0.73177736	     28.68422009	     62.94382163	    -23.64923236	     31.40625546	     56.63276802	     50.80804418	      6.83061253	     16.21297777
      2.66000000	      0.32658758	      8.65702368	     92.36019566	      0.39446535	      0.94579825	      0.28504847	      1.20243682	     -4.61490617	     -1.27826614	      0.28041580	    -16.06664165	      6.73167350	      0.00000000	      0.00000000	      0.77760032	     -5.40780735	     -0.70939211	      0.23551472	    -13.49399948	      8.28570288	      0.00000000	      0.00000000	     -6.25536522	      0.13251077	     -0.10744533	    -11.61683874	      0.17623933	     -0.11416066	    -10.27693952	      0.32218669	     -0.11416066	     -7.14925691	      0.32218669	     -0.09401466	     -5.80873214	      0.27021597	     -0.08729933	     -3.57431569	      0.20525918	     -0.08058399	    -44.68144821	      1.49898835	     -0.59757867	      0.00000000	      0.00000000	     57.58287707	    -27.20421244	     20.09159971	     65.60392364	     55.95419361	      0.71680371	     28.51641263	     64.53766648	    -23.40637219	     32.23785117	     55.35007845	     51.18747170	      6.83997407	     16.17947890
      2.67000000	      0.36208590	      8.35111556	     92.24322898	      0.39440940	      0.94575559	      0.28665906	      1.57522762	     -4.59618289	     -1.12855245	      0.27678537	    -15.85863381	      6.43741057	      0.00000000	      0.00000000	      1.07845494	     -5.41086270	     -0.82123188	      0.23108084	    -13.23995681	      7.95593526	      0.00000000	      0.00000000	     -6.26506872	      0.12770099	     -0.09762047	    -11.63485911	      0.16984232	     -0.10372175	    -10.29288139	      0.31049219	     -0.10372175	     -7.16034703	      0.31049219	     -0.08541791	     -5.81774281	      0.26040787	     -0.07931663	     -3.57986026	      0.19780884	     -0.07321535	    -44.75075932	      1.44457917	     -0.54293578	      0.00000000	      0.00000000	     59.15432631	    -26.60405087	     20.45633791	     63.72070803	     55.70213170	      0.74715675	     28.19774022	     66.09617806	    -22.79979449	     32.80987425	     53.45907020	     50.70005640	      6.92100821	     16.12283632
      2.68000000	      0.40566489	      8.05467815	     92.16450142	      0.39426343	      0.94565458	      0.28839975	      2.01949501	     -4.57287179	     -0.84267685	      0.27641238	    -15.83726278	      6.14557362	      0.00000000	      0.00000000	      1.44205665	     -5.42248930	     -0.82587789	      0.22866391	    -13.10147672	      7.65026125	      0.00000000	      0.00000000	     -6.29770732	      0.13105519	     -0.10342453	    -11.69547226	      0.17430340	     -0.10988856	    -10.34650335	      0.31864758	     -0.10988856	     -7.19764969	      0.31864758	     -0.09049646	     -5.84805102	      0.26724773	     -0.08403243	     -3.59850996	      0.20300448	     -0.07756840	    -44.98389360	      1.48252247	     -0.57521620	      0.00000000	      0.00000000	     60.72028467	    -26.20680989	     21.02814432	     62.49062143	     56.25244587	      0.77329600	     27.98076932	     67.63734358	    -22.63428236	     33.75403142	     52.15667268	     51.01183076	      6.94494646	     16.07646332
      2.69000000	      0.40833577	      7.70757823	     92.05541149	      0.39418851	      0.94545287	      0.28990610	      2.44710625	     -4.59517295	     -0.72183363	      0.27356789	    -15.67428522	      5.97966354	      0.00000000	      0.00000000	      1.79053052	     -5.39303824	     -0.95105608	      0.22452642	    -12.86441643	      7.38891542	      0.00000000	      0.00000000	     -6.30068962	      0.12252913	     -0.09264519	    -11.70101069	      0.16296374	     -0.09843552	    -10.35140297	      0.29791733	     -0.09843552	     -7.20105816	      0.29791733	     -0.08106454	     -5.85082038	      0.24986140	     -0.07527422	     -3.60021405	      0.18979762	     -0.06948389	    -45.00519586	      1.38607402	     -0.51526476	      0.00000000	      0.00000000	     62.21078098	    -25.64497600	     21.47798697	     60.59663294	     55.39609551	      0.92945120	     27.39299293	     69.11178780	    -21.98051230	     34.30519881	     50.24680215	     49.83588606	      7.15203768	     15.89395099
      2.70000000	      0.42442962	      7.40682812	     91.98290101	      0.39398309	      0.94528382	      0.29151910	      2.89998403	     -4.59855649	     -0.42775945	      0.27354134	    -15.67276436	      5.67255522	      0.00000000	      0.00000000	      2.16598040	     -5.37135549	     -0.93311715	      0.22278713	    -12.76476214	      7.08424969	      0.00000000	      0.00000000	     -6.32862907	      0.12167594	     -0.10200857	    -11.75289705	      0.16182900	     -0.10838411	    -10.39730470	      0.29584287	     -0.10838411	     -7.23299017	      0.29584287	     -0.08925750	     -5.87676496	      0.24812157	     -0.08288197	     -3.61617865	      0.18847603	     -0.07650643	    -45.20476460	      1.37642253	     -0.56734108	      0.00000000	      0.00000000	     63.71536343	    -25.19918774	     21.99905453	     59.24932381	     55.60432737	      1.00862148	     27.04201168	     70.51871466	    -21.70542243	     35.11726000	     48.87939219	     49.76041922	      7.22006905	     15.76307709
      2.71000000	      0.44700707	      7.06229078	     91.89979761	      0.39390241	      0.94500773	      0.29294726	      3.33862094	     -4.58912451	     -0.31375335	      0.27140860	    -15.55056708	      5.51669430	      0.00000000	      0.00000000	      2.56085710	     -5.36773879	     -0.94434133	      0.22030729	    -12.62267768	      6.89864283	      0.00000000	      0.00000000	     -6.33557051	      0.11250371	     -0.09790945	    -11.76578800	      0.14962993	     -0.10402879	    -10.40870879	      0.27354151	     -0.10402879	     -7.24092354	      0.27354151	     -0.08567077	     -5.88321078	      0.22941756	     -0.07955143	     -3.62014499	      0.17426824	     -0.07343209	    -45.25434660	      1.27266444	     -0.54454300	      0.00000000	      0.00000000	     65.14047863	    -24.74981135	     22.55164715	     57.49837264	     55.32623005	      1.16633514	     26.53268332	     71.87889862	    -21.20301418	     35.78860736	     47.27745995	     49.13128768	      7.37290876	     15.55460533
      2.72000000	      0.45848398	      6.78893200	     91.87234228	      0.39354249	      0.94476872	      0.29438943	      3.71314771	     -4.60430402	     -0.13279762	      0.27030452	    -15.48730795	      5.34444183	      0.00000000	      0.00000000	      2.90939711	     -5.32771893	     -0.89594298	      0.21897867	    -12.54655350	      6.77931722	      0.00000000	      0.00000000	     -6.35895439	      0.11753684	     -0.11227931	    -11.80921419	      0.15632400	     -0.11929676	    -10.44712616	      0.28577908	     -0.11929676	     -7.26764897	      0.28577908	     -0.09824439	     -5.90492504	      0.23968113	     -0.09122694	     -3.63350654	      0.18206457	     -0.08420948	    -45.42137529	      1.32960025	     -0.62446381	      0.00000000	      0.00000000	     66.76226248	    -24.48382286	     23.83305335	     55.93586395	     52.68177890	      2.20846962	     24.16664475	     73.35552364	    -21.08683542	     37.42906443	     45.81984012	     45.65151470	      8.37750699	     14.25116485
